<svg width="70" height="70" viewBox="0 0 70 70" fill="none" xmlns="http://www.w3.org/2000/svg">
<path d="M2.68372 48.3385L21.1532 29.7337L19.1034 19.6373C18.5744 19.8438 18.0121 19.9517 17.4444 19.9558H17.4304C14.8223 19.9866 12.6831 17.8974 12.6521 15.2893C12.6212 12.6812 14.7106 10.542 17.3187 10.5111C19.9268 10.4803 22.066 12.5695 22.0969 15.1776C22.1035 15.7357 22.0112 16.2905 21.824 16.8163L32.674 18.1405L50.3724 0.35C50.5895 0.128479 50.8859 0.00247917 51.196 0C51.5023 0.00160417 51.7956 0.123521 52.0127 0.3395L55.3214 3.6295C55.7768 4.08508 55.7768 4.82358 55.3214 5.27917L53.541 7.08517C60.4384 19.7681 58.1981 35.4741 48.0297 45.7228C47.9364 45.8121 47.8282 45.8843 47.71 45.9363C47.7835 46.3311 47.8219 46.7317 47.8244 47.1333V60.6667H61.8244C65.0444 60.6705 67.6539 63.28 67.6577 66.5V68.8333C67.6577 69.4776 67.1353 70 66.491 70H12.8244C12.1801 70 11.6577 69.4776 11.6577 68.8333V66.5C11.6615 63.28 14.271 60.6705 17.491 60.6667H31.491V54.6688C29.2979 55.1288 27.0633 55.3633 24.8224 55.3688C19.4452 55.363 14.1536 54.0225 9.42238 51.4675L7.63271 53.2677C7.41557 53.4892 7.11923 53.6152 6.80905 53.6177C6.5028 53.6161 6.20953 53.4941 5.99238 53.2782L2.68372 49.9882C2.22828 49.5326 2.22828 48.7941 2.68372 48.3385ZM19.0754 13.6348C18.1617 12.726 16.6843 12.7301 15.7756 13.6437C14.8668 14.5574 14.8709 16.0348 15.7845 16.9435C16.2219 17.3785 16.8136 17.6226 17.4305 17.6225H17.4375C18.7261 17.6158 19.7655 16.5658 19.7588 15.2771C19.7555 14.6602 19.5082 14.0699 19.0709 13.6348H19.0754ZM21.8217 21.301L23.1307 27.7445L25.702 25.158L21.8217 21.301ZM23.147 19.3282L27.347 23.5037L30.5962 20.237L23.147 19.3282ZM17.491 63C15.558 63 13.991 64.567 13.991 66.5V67.6667H65.3244V66.5C65.3244 64.567 63.7574 63 61.8244 63H17.491ZM33.8244 58.3333V60.6667H45.491V58.3333H33.8244ZM45.491 56V47.1333C45.491 44.303 42.8742 42 39.6577 42C36.4412 42 33.8244 44.303 33.8244 47.1333V56H45.491ZM31.491 52.29V47.1333C31.491 43.0162 35.1544 39.6667 39.6577 39.6667C42.5694 39.622 45.2921 41.1041 46.835 43.5738C55.7113 34.2249 57.7101 20.2875 51.8195 8.82073L11.128 49.7455C17.4114 52.9419 24.6143 53.8418 31.491 52.29ZM6.79621 50.7943L8.44004 49.1412L51.2077 6.11567L52.8585 4.46133L51.2077 2.81633L33.85 20.272C33.8419 20.272 33.8372 20.2872 33.829 20.293L5.14071 49.1493L6.79621 50.7943Z" fill="#212121"/>
<path d="M39.6473 44.3333H39.6578C41.5909 44.3303 43.1602 45.895 43.1631 47.828C43.166 49.761 41.6014 51.3303 39.6683 51.3333H39.6578C37.7248 51.3362 36.1555 49.7715 36.1526 47.8385C36.1497 45.9055 37.7143 44.3362 39.6473 44.3333ZM38.8307 48.6604C39.0503 48.8789 39.3479 49.0011 39.6578 48.9999C40.3021 48.9966 40.8217 48.4716 40.8184 47.8273C40.8168 47.5188 40.6931 47.2237 40.4745 47.0061C40.2574 46.7901 39.9641 46.6682 39.6578 46.6666C39.0135 46.6699 38.4939 47.1949 38.4973 47.8392C38.4989 48.1477 38.6226 48.4428 38.8412 48.6604H38.8307Z" fill="#2196F3"/>
</svg>
